<svg xmlns="http://www.w3.org/2000/svg" width="65.114" height="65.114" viewBox="0 0 65.114 65.114">
  <g id="Сгруппировать_67" data-name="Сгруппировать 67" transform="translate(-66 -324)">
    <circle id="Эллипс_16" data-name="Эллипс 16" cx="32.557" cy="32.557" r="32.557" transform="translate(66 324)" fill="rgba(245,155,255,0.36)"/>
    <g id="molecule" transform="translate(85 343)">
      <path id="Контур_122" data-name="Контур 122" d="M56.991,59.829a2.838,2.838,0,1,0-2.838-2.838A2.841,2.841,0,0,0,56.991,59.829Zm0,0" transform="translate(-51.179 -51.179)" fill="#bf0080"/>
      <path id="Контур_123" data-name="Контур 123" d="M357.3,354.461a2.838,2.838,0,1,0,2.838,2.838A2.841,2.841,0,0,0,357.3,354.461Zm0,0" transform="translate(-334.999 -334.999)" fill="#bf0080"/>
      <path id="Контур_124" data-name="Контур 124" d="M65.122,53.5a2.437,2.437,0,0,0-2.293,1.622H59.9a4.032,4.032,0,0,0-.592-1.423l3.918-3.918a5.324,5.324,0,0,1-1.147-1.147l-3.918,3.918a4.032,4.032,0,0,0-1.423-.592V49.035a2.433,2.433,0,1,0-1.622,0v2.924a4.029,4.029,0,0,0-1.423.592L51.36,50.214a4.5,4.5,0,0,1-1.147,1.147L52.551,53.7a4.028,4.028,0,0,0-.592,1.423H49.035a2.433,2.433,0,1,0,0,1.622h2.924a4.032,4.032,0,0,0,.592,1.423l-3.918,3.918a5.324,5.324,0,0,1,1.147,1.147L53.7,59.313a4.032,4.032,0,0,0,1.423.592v2.924a2.433,2.433,0,1,0,1.622,0V59.9a4.029,4.029,0,0,0,1.423-.592L60.5,61.65A4.5,4.5,0,0,1,61.65,60.5l-2.337-2.337a4.028,4.028,0,0,0,.592-1.423h2.924A2.433,2.433,0,1,0,65.122,53.5Zm0,0" transform="translate(-41.876 -41.876)" fill="#bf0080"/>
      <path id="Контур_125" data-name="Контур 125" d="M3.649,379.078A3.649,3.649,0,1,0,7.3,382.727,3.653,3.653,0,0,0,3.649,379.078Zm0,0" transform="translate(0 -358.264)" fill="#bf0080"/>
      <path id="Контур_126" data-name="Контур 126" d="M382.727,0a3.649,3.649,0,1,0,3.649,3.649A3.653,3.653,0,0,0,382.727,0Zm0,0" transform="translate(-358.264)" fill="#bf0080"/>
    </g>
  </g>
</svg>
